HIERARCHY
ROOT hip
{
	OFFSET 0.000000 0.000000 0.000000 
	CHANNELS 6 Xposition Yposition Zposition Xrotation Zrotation Yrotation
	JOINT abdomen
	{
		OFFSET 0.000000 3.402643 0.000000 
		CHANNELS 3 Xrotation Zrotation Yrotation
		JOINT chest
		{
			OFFSET 0.000000 8.438565 -0.680529 
			CHANNELS 3 Xrotation Zrotation Yrotation
			JOINT neck
			{
				OFFSET 0.000000 10.207942 -0.272212 
				CHANNELS 3 Xrotation Zrotation Yrotation
				JOINT head
				{
					OFFSET 0.000000 3.130431 0.000000 
					CHANNELS 3 Xrotation Zrotation Yrotation
					End Site
					{
						OFFSET 0.000000 3.130435 0.000000 
					}
				}
			}
			JOINT lCollar
			{
				OFFSET 3.470700 6.669187 -0.816635 
				CHANNELS 3 Yrotation Zrotation Xrotation
				JOINT lShldr
				{
					OFFSET 3.198488 0.000000 0.000000 
					CHANNELS 3 Zrotation Yrotation Xrotation
					JOINT lForeArm
					{
						OFFSET 10.139888 0.000000 0.000000 
						CHANNELS 3 Yrotation Zrotation Xrotation
						JOINT lHand
						{
							OFFSET 8.370511 0.000000 0.000000 
							CHANNELS 3 Zrotation Yrotation Xrotation
							End Site
							{
								OFFSET 4.083176 0.000000 0.000000 
							}
						}
					}
				}
			}
			JOINT rCollar
			{
				OFFSET -3.470700 6.669187 -0.816635 
				CHANNELS 3 Yrotation Zrotation Xrotation
				JOINT rShldr
				{
					OFFSET -3.198488 0.000000 0.000000 
					CHANNELS 3 Zrotation Yrotation Xrotation
					JOINT rForeArm
					{
						OFFSET -10.139888 0.000000 0.000000 
						CHANNELS 3 Yrotation Zrotation Xrotation
						JOINT rHand
						{
							OFFSET -8.370511 0.000000 0.000000 
							CHANNELS 3 Zrotation Yrotation Xrotation
							End Site
							{
								OFFSET -4.083176 0.000000 0.000000 
							}
						}
					}
				}
			}
		}
	}
	JOINT lThigh
	{
		OFFSET 5.308129 -1.633274 1.361059 
		CHANNELS 3 Xrotation Zrotation Yrotation
		JOINT lShin
		{
			OFFSET -2.041588 -20.007561 0.000000 
			CHANNELS 3 Xrotation Zrotation Yrotation
			JOINT lFoot
			{
				OFFSET 0.000000 -19.190928 -1.224953 
				CHANNELS 3 Xrotation Yrotation Zrotation
				End Site
				{
					OFFSET 0.000000 -2.449906 4.627600 
				}
			}
		}
	}
	JOINT rThigh
	{
		OFFSET -5.308129 -1.633274 1.361059 
		CHANNELS 3 Xrotation Zrotation Yrotation
		JOINT rShin
		{
			OFFSET 2.041588 -20.007561 0.000000 
			CHANNELS 3 Xrotation Zrotation Yrotation
			JOINT rFoot
			{
				OFFSET 0.000000 -19.190928 -1.224953 
				CHANNELS 3 Xrotation Yrotation Zrotation
				End Site
				{
					OFFSET 0.000000 -2.449906 4.627600 
				}
			}
		}
	}
}
MOTION
Frames: 13
Frame Time: 0.016667
28.711477 53.214359 51.045822 11.919583 -0.603918 4.101746 9.340899 17.683847 0.821459 0.000000 0.000000 0.000000 -33.819393 12.450584 -12.105028 0.000000 0.000000 0.000000 0.000000 0.000000 0.000000 -10.031030 6.038663 73.123962 -119.845940 39.388805 77.632851 12.197877 -39.131405 -72.873161 0.000000 0.000000 0.000000 39.384918 -5.450215 47.396187 50.535957 -35.695690 29.329508 -30.590826 1.420018 -5.671869 -24.197744 6.972123 -1.713447 20.102518 -6.189462 11.091063 39.313366 -2.466745 3.255003 -23.962906 -3.808289 7.181241 22.429903 0.493840 -15.542663 41.908352 -2.514735 7.811815 
29.091583 58.039211 52.354961 9.472581 -0.887325 3.154675 12.669689 23.598948 3.253060 0.000000 0.000000 0.000000 -30.246199 13.695016 -13.032538 0.000000 0.000000 0.000000 0.000000 0.000000 0.000000 -0.993692 7.193504 76.465706 -128.012085 35.086117 83.909142 15.795650 -43.028431 -79.961639 0.000000 0.000000 0.000000 36.124371 0.306235 43.546543 26.912256 -24.926531 20.311544 -21.486435 0.690306 -6.802142 -16.220644 6.733858 -0.042651 10.396070 -5.024141 12.433360 52.781174 -5.544572 2.383893 -18.258812 -3.710294 3.733428 16.683687 -1.898423 -17.002863 52.632668 5.864863 7.565636 
29.410685 61.000690 52.981960 7.889211 -1.063267 2.705518 15.564785 28.487917 5.613859 0.000000 0.000000 0.000000 -28.914936 13.948166 -14.597680 0.000000 0.000000 0.000000 0.000000 0.000000 0.000000 3.408830 10.108993 79.144081 -131.422409 32.781174 86.259041 15.788394 -41.418861 -79.586884 0.000000 0.000000 0.000000 33.284645 3.378223 42.962921 14.708507 -14.479456 15.505049 -18.865921 -1.217979 -6.726094 -12.725450 5.025488 1.098310 6.785281 -4.578808 13.068272 58.013462 -8.326903 3.150978 -15.901058 -3.270593 3.446862 14.459066 -3.010471 -16.127483 55.816029 8.060776 8.028508 
29.729105 63.950821 53.603344 6.317552 -1.249014 2.275914 18.821688 33.234657 8.360334 0.000000 0.000000 0.000000 -27.603832 14.226329 -16.141188 0.000000 0.000000 0.000000 0.000000 0.000000 0.000000 7.949977 12.818207 82.033249 -134.631912 30.387846 88.385933 15.757260 -39.766941 -79.159752 0.000000 0.000000 0.000000 30.432098 6.391240 42.252312 3.835514 -3.429546 13.101956 -16.308121 -3.128952 -6.736619 -9.298793 3.248772 2.160930 3.201722 -4.090027 13.633857 63.259800 -11.008134 4.169842 -13.566569 -2.831156 3.205517 12.219037 -4.071846 -15.241776 58.986687 10.239016 8.353566 
29.975439 65.703186 53.631344 5.968091 -1.248686 2.627393 21.013060 36.157497 9.718173 0.000000 0.000000 0.000000 -28.135769 14.487085 -17.223825 0.000000 0.000000 0.000000 0.000000 0.000000 0.000000 8.453415 15.705576 80.367805 -136.190002 29.928055 89.941574 12.732989 -33.255714 -73.036919 0.000000 0.000000 0.000000 29.051804 6.758885 43.138561 0.689586 -1.846191 9.340743 -19.959936 -4.679749 -5.724657 -9.303967 1.786487 2.528919 2.613899 -4.092698 13.873041 63.174107 -11.970695 5.743102 -13.706176 -3.104973 4.425426 11.694920 -4.540560 -15.452318 58.751244 9.967627 9.428185 
30.220652 67.448250 53.658745 5.618631 -1.248311 2.979084 23.379553 39.015476 11.258558 0.000000 0.000000 0.000000 -28.666803 14.740062 -18.297020 0.000000 0.000000 0.000000 0.000000 0.000000 0.000000 8.878736 18.602888 78.702667 -137.735092 29.442135 91.487274 10.666014 -26.568851 -67.678978 0.000000 0.000000 0.000000 27.685644 7.155233 44.007645 -2.318537 -0.074062 5.688710 -23.640945 -6.164844 -4.622885 -9.319247 0.321804 2.886985 2.000385 -4.110940 14.085279 63.104233 -12.906534 7.294627 -13.865459 -3.368993 5.635256 11.161715 -5.019472 -15.659352 58.553436 9.695454 10.484082 
30.349411 68.439148 53.625164 5.700411 -1.159934 3.506524 24.913025 40.963955 11.915032 0.000000 0.000000 0.000000 -29.015963 15.104676 -18.735924 0.000000 0.000000 0.000000 0.000000 0.000000 0.000000 8.550455 19.747379 76.628319 -139.373581 29.570986 93.983162 7.295719 -21.971848 -61.404594 0.000000 0.000000 0.000000 27.108240 7.642002 43.342335 -3.045884 0.368659 4.476271 -26.630400 -7.855605 -3.047319 -10.101310 -0.380882 2.946925 1.580579 -3.946794 13.433887 62.382774 -12.137750 7.078824 -14.446533 -4.159169 6.453828 11.018668 -5.010796 -16.695684 58.314373 9.912632 10.584065 
30.477753 69.422340 53.591366 5.793395 -1.071545 4.043539 26.529131 42.880756 12.658184 0.000000 0.000000 0.000000 -29.374233 15.448145 -19.172934 0.000000 0.000000 0.000000 0.000000 0.000000 0.000000 8.183274 20.877399 74.539040 -141.023697 29.635429 96.479424 4.555258 -17.137230 -55.627441 0.000000 0.000000 0.000000 26.521282 8.121422 42.663033 -3.764139 0.820569 3.284382 -29.641914 -9.446916 -1.400731 -10.886714 -1.083859 3.016637 1.171428 -3.832871 12.770970 61.660358 -11.343027 6.853394 -15.047489 -4.940984 7.279239 10.886810 -5.001710 -17.760820 58.068623 10.107000 10.689780 
30.561726 69.595886 53.535374 6.143778 -0.983324 4.473170 27.396740 43.665920 13.045097 0.000000 0.000000 0.000000 -29.720640 15.272532 -19.055897 0.000000 0.000000 0.000000 0.000000 0.000000 0.000000 8.245238 20.600168 73.542488 -142.250854 29.549988 97.780029 1.089593 -18.096979 -52.348141 0.000000 0.000000 0.000000 26.448910 8.673670 41.264381 -3.850048 0.932158 2.855376 -29.667269 -10.505968 -1.564746 -11.593170 -1.161814 2.939671 0.927872 -3.952092 11.256548 60.758919 -10.168199 6.496044 -15.984454 -5.380592 7.929969 11.324941 -4.726336 -19.069273 57.487789 10.292330 10.870039 
30.645279 69.761932 53.479866 6.494801 -0.904894 4.893046 28.282335 44.428097 13.454887 0.000000 0.000000 0.000000 -30.067818 15.096629 -18.936470 0.000000 0.000000 0.000000 0.000000 0.000000 0.000000 8.311734 20.313822 72.570511 -143.469101 29.438246 99.068901 -2.437223 -18.874479 -49.021069 0.000000 0.000000 0.000000 26.360144 9.229246 39.871712 -3.924737 1.045488 2.426317 -29.678209 -11.560924 -1.737714 -12.302057 -1.239640 2.824863 0.673900 -4.074240 9.802607 59.850010 -8.999851 6.177174 -16.932079 -5.810071 8.557332 11.765250 -4.455075 -20.356157 56.901749 10.486957 11.077185 
30.684462 69.146133 53.474270 6.925322 -0.895164 4.893047 28.373001 44.357037 13.228651 0.000000 0.000000 0.000000 -30.161470 14.395392 -18.520233 0.000000 0.000000 0.000000 0.000000 0.000000 0.000000 8.575644 20.130390 72.586670 -143.786453 29.452858 99.156013 -5.094955 -21.146761 -47.670528 0.000000 0.000000 0.000000 26.873146 9.634443 39.790890 -3.557163 0.716397 2.310220 -29.106598 -11.402671 -2.724515 -13.064903 -0.976197 2.251020 0.829851 -4.219756 9.529208 58.002064 -8.371571 6.184394 -18.263388 -5.731437 8.945210 12.248008 -3.928292 -21.195250 55.989693 10.874963 11.289539 
30.723282 68.516113 53.469471 7.365608 -0.885434 4.893048 28.448606 44.266430 13.002390 0.000000 0.000000 0.000000 -30.250540 13.681830 -18.097416 0.000000 0.000000 0.000000 0.000000 0.000000 0.000000 8.827107 19.930634 72.610825 -144.086212 29.476225 99.245552 -7.841830 -23.337027 -46.200027 0.000000 0.000000 0.000000 27.403717 10.041913 39.717319 -3.180434 0.366674 2.193917 -28.525461 -11.227458 -3.709405 -13.832566 -0.722233 1.665262 1.005100 -4.377137 9.243573 56.109463 -7.730598 6.254864 -19.612303 -5.653843 9.329679 12.735765 -3.399470 -22.029076 55.049599 11.257981 11.512749 
30.723282 66.405563 53.547855 7.892836 -0.623259 4.277515 27.541496 42.420097 12.057337 0.000000 0.000000 0.000000 -29.883919 12.017735 -17.134569 0.000000 0.000000 0.000000 0.000000 0.000000 0.000000 7.119628 18.712416 72.679756 -142.847580 30.252705 98.782372 -8.806748 -24.416769 -45.447495 0.000000 0.000000 0.000000 29.630819 9.877946 40.342823 -1.110555 -1.842247 1.309232 -27.555630 -10.980864 -5.520769 -15.069704 -0.195988 0.110869 1.962410 -4.175624 9.296830 52.674053 -6.438544 6.166672 -20.856983 -5.204952 9.023191 12.872360 -2.650129 -21.803991 53.445023 10.376169 10.208750 
